<?xml version="1.0" encoding="utf-8"?>
<!-- Generator: Adobe Adobe Illustrator 24.2.0, SVG Export Plug-In . SVG Version: 6.00 Build 0)  -->
<svg version="1.1" id="Layer_1" xmlns="http://www.w3.org/2000/svg" xmlns:xlink="http://www.w3.org/1999/xlink" x="0px" y="0px"
	 viewBox="0 0 1920 1080" style="enable-background:new 0 0 1920 1080;" xml:space="preserve">
<style type="css">
	.st0{fill:#FFFFFF;stroke:#000000;stroke-miterlimit:10;}
</style>
<path class="st0" d="M935.31,1078.79c-16.15-18.46-29.01-39.78-35.15-67.14c23.27-12.07,46.54-24.13,72.42-44.26
	c-7.82-18.08-17.66-35.28-26.47-57.71c13.9-8.45,27.81-16.91,43.6-30.41c-9.92-12.25-19.03-25.15-23.92-39.1
	c13.47-9.33,26.93-18.67,46.33-36.35c-11.61-11.5-21.8-24.43-32.37-43.17c12.51-9.16,23.89-19.86,29.14-36.04
	c-7.67-14.29-15.35-28.59-24.8-46.04c14.9-8.34,29.8-16.68,39.31-29.73c-10.94-12.23-19.16-26.88-24.04-41.58
	c9.3-4.65,18.6-9.3,28.15-25.3c-8.76-11.54-15.43-24.65-19.78-37.49c11.63-7.91,23.26-15.81,29.86-29.97
	c-15.46-12.77-23.25-34.2-17.3-46.77c17.21-10.7,34.42-21.4,52.95-37.2c-1.34-27.93-2.69-55.86-4.03-83.79"/>
</svg>
